G75*
G70*
%OFA0B0*%
%FSLAX24Y24*%
%IPPOS*%
%LPD*%
%AMOC8*
5,1,8,0,0,1.08239X$1,22.5*
%
%ADD10C,0.0000*%
D10*
X000927Y000100D02*
X078093Y000100D01*
X078147Y000102D01*
X078200Y000107D01*
X078253Y000116D01*
X078305Y000129D01*
X078357Y000145D01*
X078407Y000165D01*
X078455Y000188D01*
X078502Y000215D01*
X078547Y000244D01*
X078590Y000277D01*
X078630Y000312D01*
X078668Y000350D01*
X078703Y000390D01*
X078736Y000433D01*
X078765Y000478D01*
X078792Y000525D01*
X078815Y000573D01*
X078835Y000623D01*
X078851Y000675D01*
X078864Y000727D01*
X078873Y000780D01*
X078878Y000833D01*
X078880Y000887D01*
X078880Y038683D01*
X078878Y038737D01*
X078873Y038790D01*
X078864Y038843D01*
X078851Y038895D01*
X078835Y038947D01*
X078815Y038997D01*
X078792Y039045D01*
X078765Y039092D01*
X078736Y039137D01*
X078703Y039180D01*
X078668Y039220D01*
X078630Y039258D01*
X078590Y039293D01*
X078547Y039326D01*
X078502Y039355D01*
X078455Y039382D01*
X078407Y039405D01*
X078357Y039425D01*
X078305Y039441D01*
X078253Y039454D01*
X078200Y039463D01*
X078147Y039468D01*
X078093Y039470D01*
X000927Y039470D01*
X000873Y039468D01*
X000820Y039463D01*
X000767Y039454D01*
X000715Y039441D01*
X000663Y039425D01*
X000613Y039405D01*
X000565Y039382D01*
X000518Y039355D01*
X000473Y039326D01*
X000430Y039293D01*
X000390Y039258D01*
X000352Y039220D01*
X000317Y039180D01*
X000284Y039137D01*
X000255Y039092D01*
X000228Y039045D01*
X000205Y038997D01*
X000185Y038947D01*
X000169Y038895D01*
X000156Y038843D01*
X000147Y038790D01*
X000142Y038737D01*
X000140Y038683D01*
X000140Y000887D01*
X000142Y000833D01*
X000147Y000780D01*
X000156Y000727D01*
X000169Y000675D01*
X000185Y000623D01*
X000205Y000573D01*
X000228Y000525D01*
X000255Y000478D01*
X000284Y000433D01*
X000317Y000390D01*
X000352Y000350D01*
X000390Y000312D01*
X000430Y000277D01*
X000473Y000244D01*
X000518Y000215D01*
X000565Y000188D01*
X000613Y000165D01*
X000663Y000145D01*
X000715Y000129D01*
X000767Y000116D01*
X000820Y000107D01*
X000873Y000102D01*
X000927Y000100D01*
X001124Y017817D02*
X001126Y017865D01*
X001132Y017913D01*
X001142Y017960D01*
X001155Y018006D01*
X001173Y018051D01*
X001193Y018095D01*
X001218Y018137D01*
X001246Y018176D01*
X001276Y018213D01*
X001310Y018247D01*
X001347Y018279D01*
X001385Y018308D01*
X001426Y018333D01*
X001469Y018355D01*
X001514Y018373D01*
X001560Y018387D01*
X001607Y018398D01*
X001655Y018405D01*
X001703Y018408D01*
X001751Y018407D01*
X001799Y018402D01*
X001847Y018393D01*
X001893Y018381D01*
X001938Y018364D01*
X001982Y018344D01*
X002024Y018321D01*
X002064Y018294D01*
X002102Y018264D01*
X002137Y018231D01*
X002169Y018195D01*
X002199Y018157D01*
X002225Y018116D01*
X002247Y018073D01*
X002267Y018029D01*
X002282Y017984D01*
X002294Y017937D01*
X002302Y017889D01*
X002306Y017841D01*
X002306Y017793D01*
X002302Y017745D01*
X002294Y017697D01*
X002282Y017650D01*
X002267Y017605D01*
X002247Y017561D01*
X002225Y017518D01*
X002199Y017477D01*
X002169Y017439D01*
X002137Y017403D01*
X002102Y017370D01*
X002064Y017340D01*
X002024Y017313D01*
X001982Y017290D01*
X001938Y017270D01*
X001893Y017253D01*
X001847Y017241D01*
X001799Y017232D01*
X001751Y017227D01*
X001703Y017226D01*
X001655Y017229D01*
X001607Y017236D01*
X001560Y017247D01*
X001514Y017261D01*
X001469Y017279D01*
X001426Y017301D01*
X001385Y017326D01*
X001347Y017355D01*
X001310Y017387D01*
X001276Y017421D01*
X001246Y017458D01*
X001218Y017497D01*
X001193Y017539D01*
X001173Y017583D01*
X001155Y017628D01*
X001142Y017674D01*
X001132Y017721D01*
X001126Y017769D01*
X001124Y017817D01*
X001124Y037895D02*
X001126Y037943D01*
X001132Y037991D01*
X001142Y038038D01*
X001155Y038084D01*
X001173Y038129D01*
X001193Y038173D01*
X001218Y038215D01*
X001246Y038254D01*
X001276Y038291D01*
X001310Y038325D01*
X001347Y038357D01*
X001385Y038386D01*
X001426Y038411D01*
X001469Y038433D01*
X001514Y038451D01*
X001560Y038465D01*
X001607Y038476D01*
X001655Y038483D01*
X001703Y038486D01*
X001751Y038485D01*
X001799Y038480D01*
X001847Y038471D01*
X001893Y038459D01*
X001938Y038442D01*
X001982Y038422D01*
X002024Y038399D01*
X002064Y038372D01*
X002102Y038342D01*
X002137Y038309D01*
X002169Y038273D01*
X002199Y038235D01*
X002225Y038194D01*
X002247Y038151D01*
X002267Y038107D01*
X002282Y038062D01*
X002294Y038015D01*
X002302Y037967D01*
X002306Y037919D01*
X002306Y037871D01*
X002302Y037823D01*
X002294Y037775D01*
X002282Y037728D01*
X002267Y037683D01*
X002247Y037639D01*
X002225Y037596D01*
X002199Y037555D01*
X002169Y037517D01*
X002137Y037481D01*
X002102Y037448D01*
X002064Y037418D01*
X002024Y037391D01*
X001982Y037368D01*
X001938Y037348D01*
X001893Y037331D01*
X001847Y037319D01*
X001799Y037310D01*
X001751Y037305D01*
X001703Y037304D01*
X001655Y037307D01*
X001607Y037314D01*
X001560Y037325D01*
X001514Y037339D01*
X001469Y037357D01*
X001426Y037379D01*
X001385Y037404D01*
X001347Y037433D01*
X001310Y037465D01*
X001276Y037499D01*
X001246Y037536D01*
X001218Y037575D01*
X001193Y037617D01*
X001173Y037661D01*
X001155Y037706D01*
X001142Y037752D01*
X001132Y037799D01*
X001126Y037847D01*
X001124Y037895D01*
X023152Y038013D02*
X023154Y038040D01*
X023160Y038067D01*
X023169Y038093D01*
X023182Y038117D01*
X023198Y038140D01*
X023217Y038159D01*
X023239Y038176D01*
X023263Y038190D01*
X023288Y038200D01*
X023315Y038207D01*
X023342Y038210D01*
X023370Y038209D01*
X023397Y038204D01*
X023423Y038196D01*
X023447Y038184D01*
X023470Y038168D01*
X023491Y038150D01*
X023508Y038129D01*
X023523Y038105D01*
X023534Y038080D01*
X023542Y038054D01*
X023546Y038027D01*
X023546Y037999D01*
X023542Y037972D01*
X023534Y037946D01*
X023523Y037921D01*
X023508Y037897D01*
X023491Y037876D01*
X023470Y037858D01*
X023448Y037842D01*
X023423Y037830D01*
X023397Y037822D01*
X023370Y037817D01*
X023342Y037816D01*
X023315Y037819D01*
X023288Y037826D01*
X023263Y037836D01*
X023239Y037850D01*
X023217Y037867D01*
X023198Y037886D01*
X023182Y037909D01*
X023169Y037933D01*
X023160Y037959D01*
X023154Y037986D01*
X023152Y038013D01*
X026301Y038013D02*
X026303Y038040D01*
X026309Y038067D01*
X026318Y038093D01*
X026331Y038117D01*
X026347Y038140D01*
X026366Y038159D01*
X026388Y038176D01*
X026412Y038190D01*
X026437Y038200D01*
X026464Y038207D01*
X026491Y038210D01*
X026519Y038209D01*
X026546Y038204D01*
X026572Y038196D01*
X026596Y038184D01*
X026619Y038168D01*
X026640Y038150D01*
X026657Y038129D01*
X026672Y038105D01*
X026683Y038080D01*
X026691Y038054D01*
X026695Y038027D01*
X026695Y037999D01*
X026691Y037972D01*
X026683Y037946D01*
X026672Y037921D01*
X026657Y037897D01*
X026640Y037876D01*
X026619Y037858D01*
X026597Y037842D01*
X026572Y037830D01*
X026546Y037822D01*
X026519Y037817D01*
X026491Y037816D01*
X026464Y037819D01*
X026437Y037826D01*
X026412Y037836D01*
X026388Y037850D01*
X026366Y037867D01*
X026347Y037886D01*
X026331Y037909D01*
X026318Y037933D01*
X026309Y037959D01*
X026303Y037986D01*
X026301Y038013D01*
X053678Y038691D02*
X053680Y038717D01*
X053686Y038743D01*
X053696Y038768D01*
X053709Y038791D01*
X053725Y038811D01*
X053745Y038829D01*
X053767Y038844D01*
X053790Y038856D01*
X053816Y038864D01*
X053842Y038868D01*
X053868Y038868D01*
X053894Y038864D01*
X053920Y038856D01*
X053944Y038844D01*
X053965Y038829D01*
X053985Y038811D01*
X054001Y038791D01*
X054014Y038768D01*
X054024Y038743D01*
X054030Y038717D01*
X054032Y038691D01*
X054030Y038665D01*
X054024Y038639D01*
X054014Y038614D01*
X054001Y038591D01*
X053985Y038571D01*
X053965Y038553D01*
X053943Y038538D01*
X053920Y038526D01*
X053894Y038518D01*
X053868Y038514D01*
X053842Y038514D01*
X053816Y038518D01*
X053790Y038526D01*
X053766Y038538D01*
X053745Y038553D01*
X053725Y038571D01*
X053709Y038591D01*
X053696Y038614D01*
X053686Y038639D01*
X053680Y038665D01*
X053678Y038691D01*
X054859Y038691D02*
X054861Y038717D01*
X054867Y038743D01*
X054877Y038768D01*
X054890Y038791D01*
X054906Y038811D01*
X054926Y038829D01*
X054948Y038844D01*
X054971Y038856D01*
X054997Y038864D01*
X055023Y038868D01*
X055049Y038868D01*
X055075Y038864D01*
X055101Y038856D01*
X055125Y038844D01*
X055146Y038829D01*
X055166Y038811D01*
X055182Y038791D01*
X055195Y038768D01*
X055205Y038743D01*
X055211Y038717D01*
X055213Y038691D01*
X055211Y038665D01*
X055205Y038639D01*
X055195Y038614D01*
X055182Y038591D01*
X055166Y038571D01*
X055146Y038553D01*
X055124Y038538D01*
X055101Y038526D01*
X055075Y038518D01*
X055049Y038514D01*
X055023Y038514D01*
X054997Y038518D01*
X054971Y038526D01*
X054947Y038538D01*
X054926Y038553D01*
X054906Y038571D01*
X054890Y038591D01*
X054877Y038614D01*
X054867Y038639D01*
X054861Y038665D01*
X054859Y038691D01*
X057896Y036911D02*
X057898Y036941D01*
X057904Y036971D01*
X057913Y037000D01*
X057926Y037027D01*
X057943Y037052D01*
X057962Y037075D01*
X057985Y037096D01*
X058010Y037113D01*
X058036Y037127D01*
X058065Y037137D01*
X058094Y037144D01*
X058124Y037147D01*
X058155Y037146D01*
X058185Y037141D01*
X058214Y037132D01*
X058241Y037120D01*
X058267Y037105D01*
X058291Y037086D01*
X058312Y037064D01*
X058330Y037040D01*
X058345Y037013D01*
X058356Y036985D01*
X058364Y036956D01*
X058368Y036926D01*
X058368Y036896D01*
X058364Y036866D01*
X058356Y036837D01*
X058345Y036809D01*
X058330Y036782D01*
X058312Y036758D01*
X058291Y036736D01*
X058267Y036717D01*
X058241Y036702D01*
X058214Y036690D01*
X058185Y036681D01*
X058155Y036676D01*
X058124Y036675D01*
X058094Y036678D01*
X058065Y036685D01*
X058036Y036695D01*
X058010Y036709D01*
X057985Y036726D01*
X057962Y036747D01*
X057943Y036770D01*
X057926Y036795D01*
X057913Y036822D01*
X057904Y036851D01*
X057898Y036881D01*
X057896Y036911D01*
X057896Y034155D02*
X057898Y034185D01*
X057904Y034215D01*
X057913Y034244D01*
X057926Y034271D01*
X057943Y034296D01*
X057962Y034319D01*
X057985Y034340D01*
X058010Y034357D01*
X058036Y034371D01*
X058065Y034381D01*
X058094Y034388D01*
X058124Y034391D01*
X058155Y034390D01*
X058185Y034385D01*
X058214Y034376D01*
X058241Y034364D01*
X058267Y034349D01*
X058291Y034330D01*
X058312Y034308D01*
X058330Y034284D01*
X058345Y034257D01*
X058356Y034229D01*
X058364Y034200D01*
X058368Y034170D01*
X058368Y034140D01*
X058364Y034110D01*
X058356Y034081D01*
X058345Y034053D01*
X058330Y034026D01*
X058312Y034002D01*
X058291Y033980D01*
X058267Y033961D01*
X058241Y033946D01*
X058214Y033934D01*
X058185Y033925D01*
X058155Y033920D01*
X058124Y033919D01*
X058094Y033922D01*
X058065Y033929D01*
X058036Y033939D01*
X058010Y033953D01*
X057985Y033970D01*
X057962Y033991D01*
X057943Y034014D01*
X057926Y034039D01*
X057913Y034066D01*
X057904Y034095D01*
X057898Y034125D01*
X057896Y034155D01*
X053443Y031093D02*
X053445Y031134D01*
X053451Y031175D01*
X053461Y031215D01*
X053474Y031254D01*
X053491Y031291D01*
X053512Y031327D01*
X053536Y031361D01*
X053563Y031392D01*
X053592Y031420D01*
X053625Y031446D01*
X053659Y031468D01*
X053696Y031487D01*
X053734Y031502D01*
X053774Y031514D01*
X053814Y031522D01*
X053855Y031526D01*
X053897Y031526D01*
X053938Y031522D01*
X053978Y031514D01*
X054018Y031502D01*
X054056Y031487D01*
X054092Y031468D01*
X054127Y031446D01*
X054160Y031420D01*
X054189Y031392D01*
X054216Y031361D01*
X054240Y031327D01*
X054261Y031291D01*
X054278Y031254D01*
X054291Y031215D01*
X054301Y031175D01*
X054307Y031134D01*
X054309Y031093D01*
X054307Y031052D01*
X054301Y031011D01*
X054291Y030971D01*
X054278Y030932D01*
X054261Y030895D01*
X054240Y030859D01*
X054216Y030825D01*
X054189Y030794D01*
X054160Y030766D01*
X054127Y030740D01*
X054093Y030718D01*
X054056Y030699D01*
X054018Y030684D01*
X053978Y030672D01*
X053938Y030664D01*
X053897Y030660D01*
X053855Y030660D01*
X053814Y030664D01*
X053774Y030672D01*
X053734Y030684D01*
X053696Y030699D01*
X053660Y030718D01*
X053625Y030740D01*
X053592Y030766D01*
X053563Y030794D01*
X053536Y030825D01*
X053512Y030859D01*
X053491Y030895D01*
X053474Y030932D01*
X053461Y030971D01*
X053451Y031011D01*
X053445Y031052D01*
X053443Y031093D01*
X076714Y037895D02*
X076716Y037943D01*
X076722Y037991D01*
X076732Y038038D01*
X076745Y038084D01*
X076763Y038129D01*
X076783Y038173D01*
X076808Y038215D01*
X076836Y038254D01*
X076866Y038291D01*
X076900Y038325D01*
X076937Y038357D01*
X076975Y038386D01*
X077016Y038411D01*
X077059Y038433D01*
X077104Y038451D01*
X077150Y038465D01*
X077197Y038476D01*
X077245Y038483D01*
X077293Y038486D01*
X077341Y038485D01*
X077389Y038480D01*
X077437Y038471D01*
X077483Y038459D01*
X077528Y038442D01*
X077572Y038422D01*
X077614Y038399D01*
X077654Y038372D01*
X077692Y038342D01*
X077727Y038309D01*
X077759Y038273D01*
X077789Y038235D01*
X077815Y038194D01*
X077837Y038151D01*
X077857Y038107D01*
X077872Y038062D01*
X077884Y038015D01*
X077892Y037967D01*
X077896Y037919D01*
X077896Y037871D01*
X077892Y037823D01*
X077884Y037775D01*
X077872Y037728D01*
X077857Y037683D01*
X077837Y037639D01*
X077815Y037596D01*
X077789Y037555D01*
X077759Y037517D01*
X077727Y037481D01*
X077692Y037448D01*
X077654Y037418D01*
X077614Y037391D01*
X077572Y037368D01*
X077528Y037348D01*
X077483Y037331D01*
X077437Y037319D01*
X077389Y037310D01*
X077341Y037305D01*
X077293Y037304D01*
X077245Y037307D01*
X077197Y037314D01*
X077150Y037325D01*
X077104Y037339D01*
X077059Y037357D01*
X077016Y037379D01*
X076975Y037404D01*
X076937Y037433D01*
X076900Y037465D01*
X076866Y037499D01*
X076836Y037536D01*
X076808Y037575D01*
X076783Y037617D01*
X076763Y037661D01*
X076745Y037706D01*
X076732Y037752D01*
X076722Y037799D01*
X076716Y037847D01*
X076714Y037895D01*
X076714Y017817D02*
X076716Y017865D01*
X076722Y017913D01*
X076732Y017960D01*
X076745Y018006D01*
X076763Y018051D01*
X076783Y018095D01*
X076808Y018137D01*
X076836Y018176D01*
X076866Y018213D01*
X076900Y018247D01*
X076937Y018279D01*
X076975Y018308D01*
X077016Y018333D01*
X077059Y018355D01*
X077104Y018373D01*
X077150Y018387D01*
X077197Y018398D01*
X077245Y018405D01*
X077293Y018408D01*
X077341Y018407D01*
X077389Y018402D01*
X077437Y018393D01*
X077483Y018381D01*
X077528Y018364D01*
X077572Y018344D01*
X077614Y018321D01*
X077654Y018294D01*
X077692Y018264D01*
X077727Y018231D01*
X077759Y018195D01*
X077789Y018157D01*
X077815Y018116D01*
X077837Y018073D01*
X077857Y018029D01*
X077872Y017984D01*
X077884Y017937D01*
X077892Y017889D01*
X077896Y017841D01*
X077896Y017793D01*
X077892Y017745D01*
X077884Y017697D01*
X077872Y017650D01*
X077857Y017605D01*
X077837Y017561D01*
X077815Y017518D01*
X077789Y017477D01*
X077759Y017439D01*
X077727Y017403D01*
X077692Y017370D01*
X077654Y017340D01*
X077614Y017313D01*
X077572Y017290D01*
X077528Y017270D01*
X077483Y017253D01*
X077437Y017241D01*
X077389Y017232D01*
X077341Y017227D01*
X077293Y017226D01*
X077245Y017229D01*
X077197Y017236D01*
X077150Y017247D01*
X077104Y017261D01*
X077059Y017279D01*
X077016Y017301D01*
X076975Y017326D01*
X076937Y017355D01*
X076900Y017387D01*
X076866Y017421D01*
X076836Y017458D01*
X076808Y017497D01*
X076783Y017539D01*
X076763Y017583D01*
X076745Y017628D01*
X076732Y017674D01*
X076722Y017721D01*
X076716Y017769D01*
X076714Y017817D01*
M02*
