%
M48
M72
T01C0.0120
T02C0.0200
T03C0.0315
T04C0.0354
T05C0.0394
T06C0.0400
T07C0.0402
T08C0.0472
T09C0.0866
T10C0.1181
%
T01
X9195Y7482
X6439Y7974
X11951Y7974
X17463Y7974
X22975Y7974
X25731Y7482
X31242Y7482
X33998Y7974
X39510Y7974
X45022Y7974
X47778Y7482
X50534Y7974
X56046Y7974
X61557Y7974
X64313Y7482
X69825Y7482
X72581Y7974
X69825Y15553
X64313Y15553
X64140Y21850
X64640Y21850
X65640Y22350
X65040Y22950
X63890Y23850
X67226Y22973
X69559Y23274
X69568Y22629
X71123Y22186
X71753Y22697
X74403Y21713
X74403Y26004
X71026Y28450
X72207Y29238
X68664Y29238
X67876Y30025
X60140Y26100
X59390Y26100
X57640Y27100
X55820Y27060
X55100Y27060
X55100Y25860
X55820Y25860
X55750Y24214
X55080Y24214
X54803Y23919
X57640Y22889
X57640Y29100
X57640Y31600
X60790Y36324
X61971Y36324
X44416Y30193
X44096Y29713
X41696Y29953
X40940Y28180
X41900Y27220
X42256Y26913
X44336Y27713
X39740Y27220
X38300Y26020
X38140Y25700
X37740Y25540
X38540Y24340
X38540Y24100
X39500Y24340
X39420Y22420
X39740Y22420
X40380Y22020
X40060Y21700
X39420Y21060
X39820Y20660
X39820Y20340
X38540Y21860
X38300Y22100
X38460Y22420
X42140Y24340
X42700Y22020
X43260Y21700
X35260Y25300
X35020Y25540
X35260Y25780
X35020Y26020
X35260Y26260
X35020Y26500
X35260Y26740
X35020Y26980
X34140Y26980
X33820Y26740
X34140Y26500
X33900Y26260
X34140Y26020
X33900Y25780
X34140Y25540
X33900Y25300
X28934Y27683
X28220Y29700
X28380Y29860
X26300Y30980
X25820Y31540
X26300Y32020
X27974Y33043
X28788Y31442
X29575Y31442
X30362Y31442
X31150Y31442
X31937Y31442
X32725Y31442
X33512Y31442
X33899Y31522
X34700Y31620
X35020Y31620
X35340Y31620
X35766Y31616
X37020Y31953
X37340Y31953
X34780Y33460
X34380Y33380
X34220Y33700
X35384Y33805
X36504Y33805
X36424Y35165
X36860Y35140
X36060Y35885
X35020Y35940
X34584Y35965
X34780Y35220
X33500Y35060
X33020Y35060
X32621Y34506
X32620Y33940
X33036Y35981
X31740Y35965
X30140Y35940
X28700Y35885
X28140Y35300
X28060Y34980
X27820Y35460
X27420Y35460
X27020Y35460
X26700Y35460
X25289Y35483
X24943Y35533
X24249Y35523
X24249Y34603
X25824Y34460
X26300Y36100
X24943Y37698
X21847Y35951
X22140Y35220
X20540Y36900
X21687Y33254
X21809Y30286
X23384Y30286
X22384Y26020
X21794Y25789
X22384Y24903
X21794Y24116
X17500Y24500
X15500Y22740
X22854Y19683
X25731Y15553
X31260Y15540
X38723Y16635
X47778Y15553
X37450Y28747
X36410Y28747
X36380Y29633
X37340Y29633
X35420Y29940
X35020Y29940
X34620Y29940
X33414Y29043
X30381Y38026
X5168Y28327
X4614Y19683
X9195Y15553
T02
X72890Y22889
X72890Y24811
T03
X54459Y25439
X54459Y26439
X54459Y27439
X54459Y28439
X54459Y29439
X51459Y29439
X50459Y29439
X50459Y28439
X51459Y28439
X51459Y27439
X50459Y27439
X50459Y26439
X51459Y26439
X51459Y25439
X50459Y25439
X47459Y25439
X46459Y25439
X46459Y26439
X46459Y27439
X47459Y27439
X47459Y26439
X47459Y28439
X47459Y29439
X46459Y29439
X46459Y28439
X43459Y28439
X43459Y29439
X43459Y27439
X43459Y26439
X43459Y25439
X19046Y24706
X18046Y24706
X15109Y24706
X14109Y24706
X11171Y24706
X10171Y24706
X7234Y24706
X6234Y24706
X3297Y24706
X2297Y24706
X2297Y30218
X3297Y30218
X6234Y30218
X7234Y30218
X10171Y30218
X11171Y30218
X14109Y30218
X15109Y30218
X18046Y30218
X19046Y30218
X19046Y35730
X18046Y35730
X15109Y35730
X14109Y35730
X11171Y35730
X10171Y35730
X7234Y35730
X6234Y35730
X3297Y35730
X2297Y35730
T04
X53855Y38691
X55036Y38691
X61140Y37100
X57640Y30100
X57640Y28100
X57640Y26100
X57640Y24100
X57640Y22100
X57640Y20100
X75640Y20100
X75640Y35100
T05
X29864Y30415
X27896Y30415
X27896Y24706
X28880Y24706
X29864Y24706
X26498Y38013
X23349Y38013
T06
X19826Y34651
X19826Y32871
X17266Y32871
X15889Y32871
X15889Y34651
X17266Y34651
X13329Y34651
X11951Y34651
X11951Y32871
X13329Y32871
X9391Y32871
X8014Y32871
X8014Y34651
X9391Y34651
X5454Y34651
X4077Y34651
X4077Y32871
X5454Y32871
X1517Y32871
X1517Y34651
X1517Y29140
X1517Y27360
X4077Y27360
X5454Y27360
X5454Y29140
X4077Y29140
X8014Y29140
X9391Y29140
X9391Y27360
X8014Y27360
X11951Y27360
X13329Y27360
X13329Y29140
X11951Y29140
X15889Y29140
X17266Y29140
X17266Y27360
X15889Y27360
X19826Y27360
X19826Y29140
X19826Y23628
X17266Y23628
X15889Y23628
X13329Y23628
X11951Y23628
X9391Y23628
X8014Y23628
X5454Y23628
X4077Y23628
X1517Y23628
X1517Y21848
X4077Y21848
X5454Y21848
X8014Y21848
X9391Y21848
X11951Y21848
X13329Y21848
X15889Y21848
X17266Y21848
X19826Y21848
X33555Y24524
X34555Y24524
X35555Y24524
X36555Y24524
X37555Y24524
T07
X60640Y24600
X60640Y23600
X61640Y23600
X62640Y23600
X62640Y24600
X61640Y24600
T08
X58998Y34076
X58132Y34155
X57227Y34667
X57227Y36242
X58132Y36911
X57227Y37423
X59392Y37423
X53876Y34293
X38915Y34293
T09
X31282Y27659
X26479Y27659
X53876Y31093
T10
X77305Y37895
X77305Y17817
X1715Y17817
X1715Y37895
M30
